<svg xmlns="http://www.w3.org/2000/svg" width="752" height="722.667" version="1.0" viewBox="0 0 564 542"><path d="M69 130v130H35c-18.7 0-34 .4-34 .9 0 .4 63.3 63.9 140.6 141.1l140.7 140.2 31.6-31.6c17.4-17.4 31.9-31.6 32.4-31.6.4 0 .7 9.4.7 21v21h115V362.5l51.2-51.2 51.2-51.2h-67.9l-.3-130.1L496 0H69v130zm57.7-5c.2 55.8.3 102.1.3 102.7 0 1 16.3 1.3 78 1.3h78V23h191v237H92V23l17.3.2 17.2.3.2 101.5zM260 114.5V206H149V23h111v91.5zm248 169.3c0 .4-50.7 51.4-112.8 113.5L282.5 510 169 396.5 55.5 283h226.3c124.4 0 226.2.3 226.2.8zM439 442v56h-70v-42.5l34.7-34.7c19.2-19.2 34.9-34.8 35-34.8.2 0 .3 25.2.3 56z"/><path d="M318 154.5V214h122.9l.3-2.3c.2-1.2.2-28 0-59.5L441 95H318v59.5zm53-26V146h-37v-35h37v17.5zm54 0V146h-37v-35h37v17.5zm-54 52V198h-37v-35h37v17.5zm54 0V198h-37v-35h37v17.5z"/></svg>